<svg width="441" height="203" viewBox="0 0 441 203" fill="none" xmlns="http://www.w3.org/2000/svg">
<rect width="441" height="203" rx="20" fill="#D53535"/>
<path d="M55.5556 73.6667H59.1111V77.2222H55.5556V73.6667ZM59.1111 73.6667H62.6667V77.2222H59.1111V73.6667ZM59.1111 77.2222H62.6667V80.7778H59.1111V77.2222ZM59.1111 80.7778H62.6667V84.3333H59.1111V80.7778ZM59.1111 84.3333H62.6667V87.8889H59.1111V84.3333ZM59.1111 87.8889H62.6667V91.4444H59.1111V87.8889ZM62.6667 84.3333H66.2222V87.8889H62.6667V84.3333ZM62.6667 80.7778H66.2222V84.3333H62.6667V80.7778ZM62.6667 77.2222H66.2222V80.7778H62.6667V77.2222ZM62.6667 73.6667H66.2222V77.2222H62.6667V73.6667ZM55.5556 80.7778H59.1111V84.3333H55.5556V80.7778ZM55.5556 77.2222H59.1111V80.7778H55.5556V77.2222ZM55.5556 84.3333H59.1111V87.8889H55.5556V84.3333ZM55.5556 87.8889H59.1111V91.4444H55.5556V87.8889ZM55.5556 91.4444H59.1111V95H55.5556V91.4444ZM55.5556 95H59.1111V98.5556H55.5556V95ZM55.5556 98.5556H59.1111V102.111H55.5556V98.5556ZM55.5556 102.111H59.1111V105.667H55.5556V102.111ZM55.5556 105.667H59.1111V109.222H55.5556V105.667ZM55.5556 109.222H59.1111V112.778H55.5556V109.222ZM55.5556 112.778H59.1111V116.333H55.5556V112.778ZM55.5556 116.333H59.1111V119.889H55.5556V116.333ZM59.1111 116.333H62.6667V119.889H59.1111V116.333ZM59.1111 119.889H62.6667V123.444H59.1111V119.889ZM59.1111 123.444H62.6667V127H59.1111V123.444ZM55.5556 123.444H59.1111V127H55.5556V123.444ZM55.5556 119.889H59.1111V123.444H55.5556V119.889ZM62.6667 123.444H66.2222V127H62.6667V123.444ZM62.6667 119.889H66.2222V123.444H62.6667V119.889ZM62.6667 116.333H66.2222V119.889H62.6667V116.333ZM62.6667 112.778H66.2222V116.333H62.6667V112.778ZM62.6667 109.222H66.2222V112.778H62.6667V109.222ZM62.6667 105.667H66.2222V109.222H62.6667V105.667ZM62.6667 102.111H66.2222V105.667H62.6667V102.111ZM59.1111 102.111H62.6667V105.667H59.1111V102.111ZM59.1111 98.5556H62.6667V102.111H59.1111V98.5556ZM59.1111 95H62.6667V98.5556H59.1111V95ZM59.1111 91.4444H62.6667V95H59.1111V91.4444ZM62.6667 87.8889H66.2222V91.4444H62.6667V87.8889ZM62.6667 91.4444H66.2222V95H62.6667V91.4444ZM62.6667 95H66.2222V98.5556H62.6667V95ZM62.6667 98.5556H66.2222V102.111H62.6667V98.5556ZM59.1111 105.667H62.6667V109.222H59.1111V105.667ZM59.1111 109.222H62.6667V112.778H59.1111V109.222ZM59.1111 112.778H62.6667V116.333H59.1111V112.778ZM105.333 73.6667H108.889V77.2222H105.333V73.6667ZM105.333 77.2222H108.889V80.7778H105.333V77.2222ZM105.333 80.7778H108.889V84.3333H105.333V80.7778ZM105.333 84.3333H108.889V87.8889H105.333V84.3333ZM105.333 87.8889H108.889V91.4444H105.333V87.8889ZM105.333 91.4444H108.889V95H105.333V91.4444ZM105.333 95H108.889V98.5556H105.333V95ZM105.333 98.5556H108.889V102.111H105.333V98.5556ZM105.333 102.111H108.889V105.667H105.333V102.111ZM105.333 105.667H108.889V109.222H105.333V105.667ZM105.333 109.222H108.889V112.778H105.333V109.222ZM105.333 112.778H108.889V116.333H105.333V112.778ZM105.333 116.333H108.889V119.889H105.333V116.333ZM105.333 119.889H108.889V123.444H105.333V119.889ZM105.333 123.444H108.889V127H105.333V123.444ZM101.778 123.444H105.333V127H101.778V123.444ZM98.2222 119.889H101.778V123.444H98.2222V119.889ZM98.2222 116.333H101.778V119.889H98.2222V116.333ZM98.2222 123.444H101.778V127H98.2222V123.444ZM101.778 119.889H105.333V123.444H101.778V119.889ZM101.778 116.333H105.333V119.889H101.778V116.333ZM101.778 112.778H105.333V116.333H101.778V112.778ZM101.778 109.222H105.333V112.778H101.778V109.222ZM101.778 105.667H105.333V109.222H101.778V105.667ZM101.778 102.111H105.333V105.667H101.778V102.111ZM101.778 98.5556H105.333V102.111H101.778V98.5556ZM101.778 95H105.333V98.5556H101.778V95ZM101.778 91.4444H105.333V95H101.778V91.4444ZM101.778 87.8889H105.333V91.4444H101.778V87.8889ZM101.778 84.3333H105.333V87.8889H101.778V84.3333ZM101.778 80.7778H105.333V84.3333H101.778V80.7778ZM101.778 77.2222H105.333V80.7778H101.778V77.2222ZM101.778 73.6667H105.333V77.2222H101.778V73.6667ZM98.2222 73.6667H101.778V77.2222H98.2222V73.6667ZM98.2222 77.2222H101.778V80.7778H98.2222V77.2222ZM98.2222 80.7778H101.778V84.3333H98.2222V80.7778ZM98.2222 84.3333H101.778V87.8889H98.2222V84.3333ZM98.2222 91.4444H101.778V95H98.2222V91.4444ZM98.2222 95H101.778V98.5556H98.2222V95ZM98.2222 98.5556H101.778V102.111H98.2222V98.5556ZM98.2222 102.111H101.778V105.667H98.2222V102.111ZM98.2222 112.778H101.778V116.333H98.2222V112.778ZM98.2222 109.222H101.778V112.778H98.2222V109.222ZM98.2222 105.667H101.778V109.222H98.2222V105.667ZM98.2222 87.8889H101.778V91.4444H98.2222V87.8889ZM66.2222 77.2222H69.7778V80.7778H66.2222V77.2222ZM66.2222 80.7778H69.7778V84.3333H66.2222V80.7778ZM66.2222 84.3333H69.7778V87.8889H66.2222V84.3333ZM66.2222 87.8889H69.7778V91.4444H66.2222V87.8889ZM66.2222 91.4444H69.7778V95H66.2222V91.4444ZM69.7778 80.7778H73.3333V84.3333H69.7778V80.7778ZM69.7778 84.3333H73.3333V87.8889H69.7778V84.3333ZM69.7778 87.8889H73.3333V91.4444H69.7778V87.8889ZM69.7778 91.4444H73.3333V95H69.7778V91.4444ZM69.7778 95H73.3333V98.5556H69.7778V95ZM73.3333 84.3333H76.8889V87.8889H73.3333V84.3333ZM73.3333 87.8889H76.8889V91.4444H73.3333V87.8889ZM73.3333 91.4444H76.8889V95H73.3333V91.4444ZM73.3333 95H76.8889V98.5556H73.3333V95ZM73.3333 98.5556H76.8889V102.111H73.3333V98.5556ZM76.8889 87.8889H80.4444V91.4444H76.8889V87.8889ZM76.8889 91.4444H80.4444V95H76.8889V91.4444ZM76.8889 95H80.4444V98.5556H76.8889V95ZM76.8889 98.5556H80.4444V102.111H76.8889V98.5556ZM76.8889 102.111H80.4444V105.667H76.8889V102.111ZM80.4444 91.4444H84V95H80.4444V91.4444ZM80.4444 95H84V98.5556H80.4444V95ZM80.4444 98.5556H84V102.111H80.4444V98.5556ZM84 87.8889H87.5556V91.4444H84V87.8889ZM84 91.4444H87.5556V95H84V91.4444ZM84 95H87.5556V98.5556H84V95ZM87.5556 84.3333H91.1111V87.8889H87.5556V84.3333ZM87.5556 87.8889H91.1111V91.4444H87.5556V87.8889ZM87.5556 91.4444H91.1111V95H87.5556V91.4444ZM94.6667 77.2222H98.2222V80.7778H94.6667V77.2222ZM94.6667 80.7778H98.2222V84.3333H94.6667V80.7778ZM94.6667 84.3333H98.2222V87.8889H94.6667V84.3333ZM94.6667 87.8889H98.2222V91.4444H94.6667V87.8889ZM94.6667 91.4444H98.2222V95H94.6667V91.4444ZM91.1111 80.7778H94.6667V84.3333H91.1111V80.7778ZM91.1111 84.3333H94.6667V87.8889H91.1111V84.3333ZM91.1111 87.8889H94.6667V91.4444H91.1111V87.8889ZM91.1111 91.4444H94.6667V95H91.1111V91.4444ZM91.1111 95H94.6667V98.5556H91.1111V95ZM87.5556 95H91.1111V98.5556H87.5556V95ZM87.5556 98.5556H91.1111V102.111H87.5556V98.5556ZM84 98.5556H87.5556V102.111H84V98.5556ZM84 102.111H87.5556V105.667H84V102.111ZM80.4444 102.111H84V105.667H80.4444V102.111ZM80.4444 105.667H84V109.222H80.4444V105.667ZM144.469 127H140.913V123.444H144.469V127ZM137.358 127H133.802V123.444H137.358V127ZM133.802 127H130.247V123.444H133.802V127ZM130.247 127H126.691V123.444H130.247V127ZM126.691 127H123.135V123.444H126.691V127ZM123.135 123.444H119.58V119.889H123.135V123.444ZM126.691 123.444H123.135V119.889H126.691V123.444ZM130.247 123.444H126.691V119.889H130.247V123.444ZM133.802 123.444H130.247V119.889H133.802V123.444ZM137.358 123.444H133.802V119.889H137.358V123.444ZM140.913 123.444H137.358V119.889H140.913V123.444ZM144.469 123.444H140.913V119.889H144.469V123.444ZM148.024 123.444H144.469V119.889H148.024V123.444ZM148.024 119.889H144.469V116.333H148.024V119.889ZM144.469 119.889H140.913V116.333H144.469V119.889ZM151.58 119.889H148.024V116.333H151.58V119.889ZM151.58 116.333H148.024V112.778H151.58V116.333ZM151.58 112.778H148.024V109.222H151.58V112.778ZM148.024 112.778H144.469V109.222H148.024V112.778ZM144.469 112.778H140.913V109.222H144.469V112.778ZM144.469 116.333H140.913V112.778H144.469V116.333ZM148.024 116.333H144.469V112.778H148.024V116.333ZM148.024 109.222H144.469V105.667H148.024V109.222ZM148.024 105.667H144.469V102.111H148.024V105.667ZM148.024 102.111H144.469V98.5556H148.024V102.111ZM151.58 102.111H148.024V98.5556H151.58V102.111ZM151.58 98.5556H148.024V95H151.58V98.5556ZM151.58 105.667H148.024V102.111H151.58V105.667ZM151.58 109.222H148.024V105.667H151.58V109.222ZM144.469 109.222H140.913V105.667H144.469V109.222ZM144.469 105.667H140.913V102.111H144.469V105.667ZM144.469 102.111H140.913V98.5556H144.469V102.111ZM144.469 98.5556H140.913V95H144.469V98.5556ZM148.024 98.5556H144.469V95H148.024V98.5556ZM148.024 95H144.469V91.4444H148.024V95ZM144.469 95H140.913V91.4444H144.469V95ZM140.913 95H137.358V91.4444H140.913V95ZM140.913 98.5556H137.358V95H140.913V98.5556ZM144.469 91.4444H140.913V87.8889H144.469V91.4444ZM140.913 91.4444H137.358V87.8889H140.913V91.4444ZM137.358 91.4444H133.802V87.8889H137.358V91.4444ZM133.802 91.4444H130.247V87.8889H133.802V91.4444ZM130.247 91.4444H126.691V87.8889H130.247V91.4444ZM126.691 91.4444H123.135V87.8889H126.691V91.4444ZM130.247 95H126.691V91.4444H130.247V95ZM133.802 95H130.247V91.4444H133.802V95ZM137.358 95H133.802V91.4444H137.358V95ZM126.691 95H123.135V91.4444H126.691V95ZM123.135 95H119.58V91.4444H123.135V95ZM126.691 98.5556H123.135V95H126.691V98.5556ZM130.247 98.5556H126.691V95H130.247V98.5556ZM123.135 98.5556H119.58V95H123.135V98.5556ZM119.58 98.5556H116.024V95H119.58V98.5556ZM123.135 116.333H119.58V112.778H123.135V116.333ZM119.58 116.333H116.024V112.778H119.58V116.333ZM119.58 119.889H116.024V116.333H119.58V119.889ZM126.691 116.333H123.135V112.778H126.691V116.333ZM126.691 119.889H123.135V116.333H126.691V119.889ZM123.135 119.889H119.58V116.333H123.135V119.889ZM137.358 98.5556H133.802V95H137.358V98.5556ZM133.802 98.5556H130.247V95H133.802V98.5556ZM123.135 112.778H119.58V109.222H123.135V112.778ZM126.691 112.778H123.135V109.222H126.691V112.778ZM137.358 109.222H133.802V105.667H137.358V109.222ZM133.802 109.222H130.247V105.667H133.802V109.222ZM130.247 109.222H126.691V105.667H130.247V109.222ZM126.691 109.222H123.135V105.667H126.691V109.222ZM140.913 109.222H137.358V105.667H140.913V109.222ZM148.024 119.889H151.58V123.444H148.024V119.889ZM148.024 123.444H151.58V127H148.024V123.444ZM144.469 123.444H148.024V127H144.469V123.444ZM137.358 102.111H140.913V105.667H137.358V102.111ZM133.802 102.111H137.358V105.667H133.802V102.111ZM130.247 102.111H133.802V105.667H130.247V102.111ZM126.691 102.111H130.247V105.667H126.691V102.111ZM123.135 102.111H126.691V105.667H123.135V102.111ZM119.58 105.667H123.135V109.222H119.58V105.667ZM116.024 109.222H119.58V112.778H116.024V109.222ZM126.691 116.333H130.247V119.889H126.691V116.333ZM130.247 116.333H133.802V119.889H130.247V116.333ZM133.802 116.333H137.358V119.889H133.802V116.333ZM137.358 116.333H140.913V119.889H137.358V116.333ZM190.681 87.8889H194.236V91.4444H190.681V87.8889ZM187.125 87.8889H190.681V91.4444H187.125V87.8889ZM180.014 87.8889H183.569V91.4444H180.014V87.8889ZM176.458 87.8889H180.014V91.4444H176.458V87.8889ZM172.903 87.8889H176.458V91.4444H172.903V87.8889ZM169.347 87.8889H172.903V91.4444H169.347V87.8889ZM165.792 87.8889H169.347V91.4444H165.792V87.8889ZM165.792 91.4444H169.347V95H165.792V91.4444ZM169.347 91.4444H172.903V95H169.347V91.4444ZM183.569 91.4444H187.125V95H183.569V91.4444ZM183.569 87.8889H187.125V91.4444H183.569V87.8889ZM176.458 91.4444H180.014V95H176.458V91.4444ZM172.903 91.4444H176.458V95H172.903V91.4444ZM180.014 91.4444H183.569V95H180.014V91.4444ZM187.125 91.4444H190.681V95H187.125V91.4444ZM190.681 91.4444H194.236V95H190.681V91.4444ZM172.903 95H176.458V98.5556H172.903V95ZM176.458 95H180.014V98.5556H176.458V95ZM180.014 95H183.569V98.5556H180.014V95ZM183.569 95H187.125V98.5556H183.569V95ZM187.125 95H190.681V98.5556H187.125V95ZM190.681 95H194.236V98.5556H190.681V95ZM169.347 95H172.903V98.5556H169.347V95ZM165.792 95H169.347V98.5556H165.792V95ZM162.236 91.4444H165.792V95H162.236V91.4444ZM162.236 95H165.792V98.5556H162.236V95ZM158.681 95H162.236V98.5556H158.681V95ZM158.681 98.5556H162.236V102.111H158.681V98.5556ZM158.681 102.111H162.236V105.667H158.681V102.111ZM162.236 102.111H165.792V105.667H162.236V102.111ZM165.792 102.111H169.347V105.667H165.792V102.111ZM165.792 98.5556H169.347V102.111H165.792V98.5556ZM162.236 98.5556H165.792V102.111H162.236V98.5556ZM158.681 105.667H162.236V109.222H158.681V105.667ZM158.681 109.222H162.236V112.778H158.681V109.222ZM158.681 112.778H162.236V116.333H158.681V112.778ZM162.236 112.778H165.792V116.333H162.236V112.778ZM165.792 112.778H169.347V116.333H165.792V112.778ZM165.792 109.222H169.347V112.778H165.792V109.222ZM165.792 105.667H169.347V109.222H165.792V105.667ZM162.236 105.667H165.792V109.222H162.236V105.667ZM162.236 109.222H165.792V112.778H162.236V109.222ZM162.236 116.333H165.792V119.889H162.236V116.333ZM165.792 116.333H169.347V119.889H165.792V116.333ZM169.347 116.333H172.903V119.889H169.347V116.333ZM169.347 112.778H172.903V116.333H169.347V112.778ZM165.792 119.889H169.347V123.444H165.792V119.889ZM169.347 119.889H172.903V123.444H169.347V119.889ZM172.903 119.889H176.458V123.444H172.903V119.889ZM172.903 116.333H176.458V119.889H172.903V116.333ZM176.458 116.333H180.014V119.889H176.458V116.333ZM176.458 119.889H180.014V123.444H176.458V119.889ZM172.903 112.778H176.458V116.333H172.903V112.778ZM176.458 112.778H180.014V116.333H176.458V112.778ZM180.014 112.778H183.569V116.333H180.014V112.778ZM183.569 112.778H187.125V116.333H183.569V112.778ZM187.125 112.778H190.681V116.333H187.125V112.778ZM183.569 116.333H187.125V119.889H183.569V116.333ZM183.569 119.889H187.125V123.444H183.569V119.889ZM180.014 116.333H183.569V119.889H180.014V116.333ZM183.569 109.222H187.125V112.778H183.569V109.222ZM183.569 105.667H187.125V109.222H183.569V105.667ZM183.569 102.111H187.125V105.667H183.569V102.111ZM183.569 98.5556H187.125V102.111H183.569V98.5556ZM187.125 98.5556H190.681V102.111H187.125V98.5556ZM190.681 98.5556H194.236V102.111H190.681V98.5556ZM190.681 102.111H194.236V105.667H190.681V102.111ZM190.681 105.667H194.236V109.222H190.681V105.667ZM190.681 109.222H194.236V112.778H190.681V109.222ZM190.681 112.778H194.236V116.333H190.681V112.778ZM187.125 116.333H190.681V119.889H187.125V116.333ZM187.125 109.222H190.681V112.778H187.125V109.222ZM187.125 105.667H190.681V109.222H187.125V105.667ZM187.125 102.111H190.681V105.667H187.125V102.111ZM187.125 119.889H190.681V123.444H187.125V119.889ZM190.681 119.889H194.236V123.444H190.681V119.889ZM190.681 116.333H194.236V119.889H190.681V116.333ZM183.569 123.444H187.125V127H183.569V123.444ZM183.569 127H187.125V130.556H183.569V127ZM183.569 130.556H187.125V134.111H183.569V130.556ZM187.125 130.556H190.681V134.111H187.125V130.556ZM190.681 130.556H194.236V134.111H190.681V130.556ZM190.681 127H194.236V130.556H190.681V127ZM190.681 123.444H194.236V127H190.681V123.444ZM187.125 123.444H190.681V127H187.125V123.444ZM187.125 127H190.681V130.556H187.125V127ZM187.125 134.111H190.681V137.667H187.125V134.111ZM183.569 134.111H187.125V137.667H183.569V134.111ZM180.014 134.111H183.569V137.667H180.014V134.111ZM180.014 130.556H183.569V134.111H180.014V130.556ZM183.569 137.667H187.125V141.222H183.569V137.667ZM180.014 137.667H183.569V141.222H180.014V137.667ZM176.458 137.667H180.014V141.222H176.458V137.667ZM176.458 134.111H180.014V137.667H176.458V134.111ZM172.903 134.111H176.458V137.667H172.903V134.111ZM169.347 134.111H172.903V137.667H169.347V134.111ZM165.792 137.667H169.347V141.222H165.792V137.667ZM169.347 137.667H172.903V141.222H169.347V137.667ZM172.903 137.667H176.458V141.222H172.903V137.667ZM165.792 134.111H169.347V137.667H165.792V134.111ZM162.236 134.111H165.792V137.667H162.236V134.111ZM165.792 130.556H169.347V134.111H165.792V130.556ZM169.347 130.556H172.903V134.111H169.347V130.556ZM162.236 130.556H165.792V134.111H162.236V130.556ZM165.792 127H169.347V130.556H165.792V127ZM162.236 127H165.792V130.556H162.236V127ZM158.681 127H162.236V130.556H158.681V127ZM158.681 130.556H162.236V134.111H158.681V130.556ZM201.337 73.6667H204.892V77.2222H201.337V73.6667ZM201.337 77.2222H204.892V80.7778H201.337V77.2222ZM201.337 80.7778H204.892V84.3333H201.337V80.7778ZM201.337 91.4444H204.892V95H201.337V91.4444ZM201.337 95H204.892V98.5556H201.337V95ZM201.337 98.5556H204.892V102.111H201.337V98.5556ZM201.337 102.111H204.892V105.667H201.337V102.111ZM201.337 105.667H204.892V109.222H201.337V105.667ZM201.337 109.222H204.892V112.778H201.337V109.222ZM201.337 112.778H204.892V116.333H201.337V112.778ZM201.337 116.333H204.892V119.889H201.337V116.333ZM201.337 119.889H204.892V123.444H201.337V119.889ZM201.337 123.444H204.892V127H201.337V123.444ZM204.892 123.444H208.448V127H204.892V123.444ZM208.448 123.444H212.003V127H208.448V123.444ZM208.448 119.889H212.003V123.444H208.448V119.889ZM208.448 116.333H212.003V119.889H208.448V116.333ZM208.448 112.778H212.003V116.333H208.448V112.778ZM208.448 109.222H212.003V112.778H208.448V109.222ZM208.448 105.667H212.003V109.222H208.448V105.667ZM208.448 102.111H212.003V105.667H208.448V102.111ZM208.448 98.5556H212.003V102.111H208.448V98.5556ZM208.448 95H212.003V98.5556H208.448V95ZM208.448 73.6667H212.003V77.2222H208.448V73.6667ZM204.892 73.6667H208.448V77.2222H204.892V73.6667ZM204.892 77.2222H208.448V80.7778H204.892V77.2222ZM208.448 77.2222H212.003V80.7778H208.448V77.2222ZM208.448 80.7778H212.003V84.3333H208.448V80.7778ZM208.448 91.4444H212.003V95H208.448V91.4444ZM204.892 80.7778H208.448V84.3333H204.892V80.7778ZM204.892 91.4444H208.448V95H204.892V91.4444ZM204.892 95H208.448V98.5556H204.892V95ZM204.892 119.889H208.448V123.444H204.892V119.889ZM204.892 116.333H208.448V119.889H204.892V116.333ZM204.892 112.778H208.448V116.333H204.892V112.778ZM204.892 109.222H208.448V112.778H204.892V109.222ZM204.892 105.667H208.448V109.222H204.892V105.667ZM204.892 102.111H208.448V105.667H204.892V102.111ZM204.892 98.5556H208.448V102.111H204.892V98.5556ZM226.26 87.8889H229.816V91.4444H226.26V87.8889ZM222.705 91.4444H226.26V95H222.705V91.4444ZM222.705 95H226.26V98.5556H222.705V95ZM219.149 91.4444H222.705V95H219.149V91.4444ZM219.149 87.8889H222.705V91.4444H219.149V87.8889ZM222.705 87.8889H226.26V91.4444H222.705V87.8889ZM222.705 98.5556H226.26V102.111H222.705V98.5556ZM219.149 98.5556H222.705V102.111H219.149V98.5556ZM219.149 102.111H222.705V105.667H219.149V102.111ZM219.149 95H222.705V98.5556H219.149V95ZM219.149 105.667H222.705V109.222H219.149V105.667ZM219.149 109.222H222.705V112.778H219.149V109.222ZM219.149 112.778H222.705V116.333H219.149V112.778ZM219.149 116.333H222.705V119.889H219.149V116.333ZM219.149 119.889H222.705V123.444H219.149V119.889ZM222.705 119.889H226.26V123.444H222.705V119.889ZM226.26 119.889H229.816V123.444H226.26V119.889ZM226.26 123.444H229.816V127H226.26V123.444ZM222.705 123.444H226.26V127H222.705V123.444ZM219.149 123.444H222.705V127H219.149V123.444ZM226.26 116.333H229.816V119.889H226.26V116.333ZM226.26 112.778H229.816V116.333H226.26V112.778ZM226.26 109.222H229.816V112.778H226.26V109.222ZM226.26 105.667H229.816V109.222H226.26V105.667ZM226.26 102.111H229.816V105.667H226.26V102.111ZM226.26 98.5556H229.816V102.111H226.26V98.5556ZM226.26 95H229.816V98.5556H226.26V95ZM226.26 91.4444H229.816V95H226.26V91.4444ZM222.705 102.111H226.26V105.667H222.705V102.111ZM222.705 109.222H226.26V112.778H222.705V109.222ZM222.705 112.778H226.26V116.333H222.705V112.778ZM222.705 116.333H226.26V119.889H222.705V116.333ZM222.705 105.667H226.26V109.222H222.705V105.667ZM244.038 123.444H247.594V127H244.038V123.444ZM247.594 123.444H251.149V127H247.594V123.444ZM247.594 119.889H251.149V123.444H247.594V119.889ZM247.594 116.333H251.149V119.889H247.594V116.333ZM247.594 112.778H251.149V116.333H247.594V112.778ZM251.149 112.778H254.705V116.333H251.149V112.778ZM251.149 109.222H254.705V112.778H251.149V109.222ZM251.149 116.333H254.705V119.889H251.149V116.333ZM251.149 119.889H254.705V123.444H251.149V119.889ZM251.149 123.444H254.705V127H251.149V123.444ZM244.038 119.889H247.594V123.444H244.038V119.889ZM244.038 116.333H247.594V119.889H244.038V116.333ZM244.038 112.778H247.594V116.333H244.038V112.778ZM244.038 109.222H247.594V112.778H244.038V109.222ZM244.038 105.667H247.594V109.222H244.038V105.667ZM244.038 102.111H247.594V105.667H244.038V102.111ZM244.038 98.5556H247.594V102.111H244.038V98.5556ZM244.038 95H247.594V98.5556H244.038V95ZM244.038 91.4444H247.594V95H244.038V91.4444ZM240.483 91.4444H244.038V95H240.483V91.4444ZM236.927 91.4444H240.483V95H236.927V91.4444ZM247.594 95H251.149V98.5556H247.594V95ZM247.594 98.5556H251.149V102.111H247.594V98.5556ZM247.594 102.111H251.149V105.667H247.594V102.111ZM247.594 105.667H251.149V109.222H247.594V105.667ZM247.594 109.222H251.149V112.778H247.594V109.222ZM251.149 105.667H254.705V109.222H251.149V105.667ZM251.149 102.111H254.705V105.667H251.149V102.111ZM251.149 98.5556H254.705V102.111H251.149V98.5556ZM251.149 95H254.705V98.5556H251.149V95ZM247.594 91.4444H251.149V95H247.594V91.4444ZM244.038 87.8889H247.594V91.4444H244.038V87.8889ZM240.483 87.8889H244.038V91.4444H240.483V87.8889ZM236.927 87.8889H240.483V91.4444H236.927V87.8889ZM233.372 87.8889H236.927V91.4444H233.372V87.8889ZM233.372 91.4444H236.927V95H233.372V91.4444ZM229.816 91.4444H233.372V95H229.816V91.4444ZM229.816 95H233.372V98.5556H229.816V95ZM233.372 95H236.927V98.5556H233.372V95ZM236.927 95H240.483V98.5556H236.927V95ZM240.483 95H244.038V98.5556H240.483V95ZM229.816 98.5556H233.372V102.111H229.816V98.5556ZM261.806 73.6667H265.361V77.2222H261.806V73.6667ZM261.806 77.2222H265.361V80.7778H261.806V77.2222ZM261.806 80.7778H265.361V84.3333H261.806V80.7778ZM261.806 91.4444H265.361V95H261.806V91.4444ZM261.806 95H265.361V98.5556H261.806V95ZM261.806 98.5556H265.361V102.111H261.806V98.5556ZM261.806 102.111H265.361V105.667H261.806V102.111ZM261.806 105.667H265.361V109.222H261.806V105.667ZM261.806 109.222H265.361V112.778H261.806V109.222ZM261.806 112.778H265.361V116.333H261.806V112.778ZM261.806 116.333H265.361V119.889H261.806V116.333ZM261.806 119.889H265.361V123.444H261.806V119.889ZM261.806 123.444H265.361V127H261.806V123.444ZM265.361 123.444H268.917V127H265.361V123.444ZM268.917 123.444H272.472V127H268.917V123.444ZM268.917 119.889H272.472V123.444H268.917V119.889ZM268.917 116.333H272.472V119.889H268.917V116.333ZM268.917 112.778H272.472V116.333H268.917V112.778ZM268.917 109.222H272.472V112.778H268.917V109.222ZM268.917 105.667H272.472V109.222H268.917V105.667ZM268.917 102.111H272.472V105.667H268.917V102.111ZM268.917 98.5556H272.472V102.111H268.917V98.5556ZM268.917 95H272.472V98.5556H268.917V95ZM268.917 73.6667H272.472V77.2222H268.917V73.6667ZM265.361 73.6667H268.917V77.2222H265.361V73.6667ZM265.361 77.2222H268.917V80.7778H265.361V77.2222ZM268.917 77.2222H272.472V80.7778H268.917V77.2222ZM268.917 80.7778H272.472V84.3333H268.917V80.7778ZM268.917 91.4444H272.472V95H268.917V91.4444ZM265.361 80.7778H268.917V84.3333H265.361V80.7778ZM265.361 91.4444H268.917V95H265.361V91.4444ZM265.361 95H268.917V98.5556H265.361V95ZM265.361 119.889H268.917V123.444H265.361V119.889ZM265.361 116.333H268.917V119.889H265.361V116.333ZM265.361 112.778H268.917V116.333H265.361V112.778ZM265.361 109.222H268.917V112.778H265.361V109.222ZM265.361 105.667H268.917V109.222H265.361V105.667ZM265.361 102.111H268.917V105.667H265.361V102.111ZM265.361 98.5556H268.917V102.111H265.361V98.5556ZM279.618 87.8889H283.174V91.4444H279.618V87.8889ZM283.174 87.8889H286.729V91.4444H283.174V87.8889ZM286.729 87.8889H290.285V91.4444H286.729V87.8889ZM286.729 91.4444H290.285V95H286.729V91.4444ZM286.729 95H290.285V98.5556H286.729V95ZM286.729 98.5556H290.285V102.111H286.729V98.5556ZM286.729 102.111H290.285V105.667H286.729V102.111ZM286.729 105.667H290.285V109.222H286.729V105.667ZM283.174 105.667H286.729V109.222H283.174V105.667ZM283.174 102.111H286.729V105.667H283.174V102.111ZM283.174 98.5556H286.729V102.111H283.174V98.5556ZM279.618 95H283.174V98.5556H279.618V95ZM279.618 91.4444H283.174V95H279.618V91.4444ZM283.174 95H286.729V98.5556H283.174V95ZM283.174 91.4444H286.729V95H283.174V91.4444ZM279.618 98.5556H283.174V102.111H279.618V98.5556ZM279.618 102.111H283.174V105.667H279.618V102.111ZM279.618 105.667H283.174V109.222H279.618V105.667ZM279.618 109.222H283.174V112.778H279.618V109.222ZM283.174 109.222H286.729V112.778H283.174V109.222ZM286.729 109.222H290.285V112.778H286.729V109.222ZM286.729 112.778H290.285V116.333H286.729V112.778ZM286.729 116.333H290.285V119.889H286.729V116.333ZM283.174 116.333H286.729V119.889H283.174V116.333ZM283.174 112.778H286.729V116.333H283.174V112.778ZM279.618 112.778H283.174V116.333H279.618V112.778ZM279.618 116.333H283.174V119.889H279.618V116.333ZM283.174 119.889H286.729V123.444H283.174V119.889ZM286.729 119.889H290.285V123.444H286.729V119.889ZM290.285 119.889H293.84V123.444H290.285V119.889ZM290.285 116.333H293.84V119.889H290.285V116.333ZM286.729 123.444H290.285V127H286.729V123.444ZM290.285 123.444H293.84V127H290.285V123.444ZM293.84 123.444H297.396V127H293.84V123.444ZM293.84 119.889H297.396V123.444H293.84V119.889ZM293.84 116.333H297.396V119.889H293.84V116.333ZM297.396 119.889H300.951V123.444H297.396V119.889ZM297.396 123.444H300.951V127H297.396V123.444ZM311.618 87.8889H315.174V91.4444H311.618V87.8889ZM311.618 91.4444H315.174V95H311.618V91.4444ZM311.618 95H315.174V98.5556H311.618V95ZM311.618 98.5556H315.174V102.111H311.618V98.5556ZM311.618 102.111H315.174V105.667H311.618V102.111ZM311.618 105.667H315.174V109.222H311.618V105.667ZM311.618 109.222H315.174V112.778H311.618V109.222ZM311.618 112.778H315.174V116.333H311.618V112.778ZM311.618 116.333H315.174V119.889H311.618V116.333ZM308.063 116.333H311.618V119.889H308.063V116.333ZM304.507 116.333H308.063V119.889H304.507V116.333ZM304.507 119.889H308.063V123.444H304.507V119.889ZM300.951 119.889H304.507V123.444H300.951V119.889ZM308.063 119.889H311.618V123.444H308.063V119.889ZM311.618 119.889H315.174V123.444H311.618V119.889ZM300.951 116.333H304.507V119.889H300.951V116.333ZM297.396 116.333H300.951V119.889H297.396V116.333ZM300.951 112.778H304.507V116.333H300.951V112.778ZM304.507 112.778H308.063V116.333H304.507V112.778ZM308.063 112.778H311.618V116.333H308.063V112.778ZM308.063 109.222H311.618V112.778H308.063V109.222ZM308.063 105.667H311.618V109.222H308.063V105.667ZM308.063 102.111H311.618V105.667H308.063V102.111ZM308.063 98.5556H311.618V102.111H308.063V98.5556ZM308.063 95H311.618V98.5556H308.063V95ZM308.063 91.4444H311.618V95H308.063V91.4444ZM308.063 87.8889H311.618V91.4444H308.063V87.8889ZM304.507 91.4444H308.063V95H304.507V91.4444ZM304.507 95H308.063V98.5556H304.507V95ZM304.507 98.5556H308.063V102.111H304.507V98.5556ZM304.507 102.111H308.063V105.667H304.507V102.111ZM304.507 105.667H308.063V109.222H304.507V105.667ZM304.507 109.222H308.063V112.778H304.507V109.222ZM304.507 87.8889H308.063V91.4444H304.507V87.8889ZM311.618 123.444H315.174V127H311.618V123.444ZM308.063 123.444H311.618V127H308.063V123.444ZM304.507 123.444H308.063V127H304.507V123.444ZM329.385 87.8889H332.941V91.4444H329.385V87.8889ZM325.83 91.4444H329.385V95H325.83V91.4444ZM325.83 95H329.385V98.5556H325.83V95ZM322.274 91.4444H325.83V95H322.274V91.4444ZM322.274 87.8889H325.83V91.4444H322.274V87.8889ZM325.83 87.8889H329.385V91.4444H325.83V87.8889ZM325.83 98.5556H329.385V102.111H325.83V98.5556ZM322.274 98.5556H325.83V102.111H322.274V98.5556ZM322.274 102.111H325.83V105.667H322.274V102.111ZM322.274 95H325.83V98.5556H322.274V95ZM322.274 105.667H325.83V109.222H322.274V105.667ZM322.274 109.222H325.83V112.778H322.274V109.222ZM322.274 112.778H325.83V116.333H322.274V112.778ZM322.274 116.333H325.83V119.889H322.274V116.333ZM322.274 119.889H325.83V123.444H322.274V119.889ZM325.83 119.889H329.385V123.444H325.83V119.889ZM329.385 119.889H332.941V123.444H329.385V119.889ZM329.385 123.444H332.941V127H329.385V123.444ZM325.83 123.444H329.385V127H325.83V123.444ZM322.274 123.444H325.83V127H322.274V123.444ZM329.385 116.333H332.941V119.889H329.385V116.333ZM329.385 112.778H332.941V116.333H329.385V112.778ZM329.385 109.222H332.941V112.778H329.385V109.222ZM329.385 105.667H332.941V109.222H329.385V105.667ZM329.385 102.111H332.941V105.667H329.385V102.111ZM329.385 98.5556H332.941V102.111H329.385V98.5556ZM329.385 95H332.941V98.5556H329.385V95ZM329.385 91.4444H332.941V95H329.385V91.4444ZM325.83 102.111H329.385V105.667H325.83V102.111ZM325.83 109.222H329.385V112.778H325.83V109.222ZM325.83 112.778H329.385V116.333H325.83V112.778ZM325.83 116.333H329.385V119.889H325.83V116.333ZM325.83 105.667H329.385V109.222H325.83V105.667ZM343.608 123.444H347.163V127H343.608V123.444ZM347.163 123.444H350.719V127H347.163V123.444ZM347.163 119.889H350.719V123.444H347.163V119.889ZM347.163 116.333H350.719V119.889H347.163V116.333ZM347.163 112.778H350.719V116.333H347.163V112.778ZM350.719 112.778H354.274V116.333H350.719V112.778ZM350.719 109.222H354.274V112.778H350.719V109.222ZM350.719 116.333H354.274V119.889H350.719V116.333ZM350.719 119.889H354.274V123.444H350.719V119.889ZM350.719 123.444H354.274V127H350.719V123.444ZM343.608 119.889H347.163V123.444H343.608V119.889ZM343.608 116.333H347.163V119.889H343.608V116.333ZM343.608 112.778H347.163V116.333H343.608V112.778ZM343.608 109.222H347.163V112.778H343.608V109.222ZM343.608 105.667H347.163V109.222H343.608V105.667ZM343.608 102.111H347.163V105.667H343.608V102.111ZM343.608 98.5556H347.163V102.111H343.608V98.5556ZM343.608 95H347.163V98.5556H343.608V95ZM343.608 91.4444H347.163V95H343.608V91.4444ZM340.052 91.4444H343.608V95H340.052V91.4444ZM347.163 95H350.719V98.5556H347.163V95ZM347.163 98.5556H350.719V102.111H347.163V98.5556ZM347.163 102.111H350.719V105.667H347.163V102.111ZM347.163 105.667H350.719V109.222H347.163V105.667ZM347.163 109.222H350.719V112.778H347.163V109.222ZM350.719 105.667H354.274V109.222H350.719V105.667ZM350.719 102.111H354.274V105.667H350.719V102.111ZM350.719 98.5556H354.274V102.111H350.719V98.5556ZM350.719 95H354.274V98.5556H350.719V95ZM347.163 91.4444H350.719V95H347.163V91.4444ZM343.608 87.8889H347.163V91.4444H343.608V87.8889ZM340.052 87.8889H343.608V91.4444H340.052V87.8889ZM336.497 87.8889H340.052V91.4444H336.497V87.8889ZM336.497 91.4444H340.052V95H336.497V91.4444ZM332.941 91.4444H336.497V95H332.941V91.4444ZM332.941 95H336.497V98.5556H332.941V95ZM336.497 95H340.052V98.5556H336.497V95ZM340.052 95H343.608V98.5556H340.052V95ZM332.941 98.5556H336.497V102.111H332.941V98.5556ZM364.941 123.444H368.497V127H364.941V123.444ZM368.497 123.444H372.052V127H368.497V123.444ZM368.497 119.889H372.052V123.444H368.497V119.889ZM368.497 116.333H372.052V119.889H368.497V116.333ZM368.497 112.778H372.052V116.333H368.497V112.778ZM372.052 112.778H375.608V116.333H372.052V112.778ZM372.052 109.222H375.608V112.778H372.052V109.222ZM372.052 116.333H375.608V119.889H372.052V116.333ZM372.052 119.889H375.608V123.444H372.052V119.889ZM372.052 123.444H375.608V127H372.052V123.444ZM364.941 119.889H368.497V123.444H364.941V119.889ZM364.941 116.333H368.497V119.889H364.941V116.333ZM364.941 112.778H368.497V116.333H364.941V112.778ZM364.941 109.222H368.497V112.778H364.941V109.222ZM364.941 105.667H368.497V109.222H364.941V105.667ZM364.941 102.111H368.497V105.667H364.941V102.111ZM364.941 98.5556H368.497V102.111H364.941V98.5556ZM364.941 95H368.497V98.5556H364.941V95ZM364.941 91.4444H368.497V95H364.941V91.4444ZM361.385 91.4444H364.941V95H361.385V91.4444ZM368.497 95H372.052V98.5556H368.497V95ZM368.497 98.5556H372.052V102.111H368.497V98.5556ZM368.497 102.111H372.052V105.667H368.497V102.111ZM368.497 105.667H372.052V109.222H368.497V105.667ZM368.497 109.222H372.052V112.778H368.497V109.222ZM372.052 105.667H375.608V109.222H372.052V105.667ZM372.052 102.111H375.608V105.667H372.052V102.111ZM372.052 98.5556H375.608V102.111H372.052V98.5556ZM372.052 95H375.608V98.5556H372.052V95ZM368.497 91.4444H372.052V95H368.497V91.4444ZM364.941 87.8889H368.497V91.4444H364.941V87.8889ZM361.385 87.8889H364.941V91.4444H361.385V87.8889ZM357.83 87.8889H361.385V91.4444H357.83V87.8889ZM357.83 91.4444H361.385V95H357.83V91.4444ZM354.274 91.4444H357.83V95H354.274V91.4444ZM354.274 95H357.83V98.5556H354.274V95ZM357.83 95H361.385V98.5556H357.83V95ZM361.385 95H364.941V98.5556H361.385V95ZM354.274 98.5556H357.83V102.111H354.274V98.5556Z" fill="white"/>
</svg>
